# xmcd
#
# Track frame offsets:
#	150
#	11928
#	23706
#	35939
#	48172
#	61776
#	75380
#	86031
#	96682
#	108895
#	121108
#	131266
#	141424
#	155098
#	168772
#	183508
#
# Disc length: 2641 seconds
#
# Revision: 1
# Processed by: cddbd v1.5.2PL0 Copyright (c) Steve Scherf et al.
# Submitted via: audiograbber 1.83.01
#
DISCID=d10a4f10
DTITLE=Various Artist - K0741-KT6015
DYEAR=1900
DGENRE=
TTITLE0=Gibson, Don (vocal) - Sea Of Heartache
TTITLE1=Gibson, Don - Sea Of Heartache
TTITLE2=Paycheck, Johnnhy (vocal) - Take This Job And Shove It
TTITLE3=Paycheck, Johnny - Take This Job And Shove It
TTITLE4=McDaniel, Mel (vocal) - Baby's Got Her Blue Jeans On
TTITLE5=McDaniel, Mel - Baby's Got Her Blue Jeans On
TTITLE6=Young, Faron (vocal) - Hello Walls 
TTITLE7=Young, Faron - Hello Walls
TTITLE8=Greene, Jack (vocal) - There Goes My Everything
TTITLE9=Greene, Jack - There Goes My Everything
TTITLE10=Locklin, Hank (vocal) - Please Help Me, I'm Falling
TTITLE11=Locklin, Hank - Please Help Me, I'm Falling
TTITLE12=Houston, David (vocal) - Almost Persuaded
TTITLE13=Houston, David  - Almost Persuaded
TTITLE14=Greenwood, Lee (vocal) - God Bless The USA
TTITLE15=Greenwood, Lee - God BlessThe USA
EXTD=
EXTT0=
EXTT1=
EXTT2=
EXTT3=
EXTT4=
EXTT5=
EXTT6=
EXTT7=
EXTT8=
EXTT9=
EXTT10=
EXTT11=
EXTT12=
EXTT13=
EXTT14=
EXTT15=
PLAYORDER=
